<svg width="1838" height="400" viewBox="0 0 1838 400" fill="none" xmlns="http://www.w3.org/2000/svg">
<g clip-path="url(#clip0_5_18)">
<path d="M273.416 209.429C260.845 221.999 248.274 234.569 235.702 247.141C219.989 262.854 204.275 278.568 188.562 294.281C204.275 309.995 219.989 325.708 235.702 341.422C251.416 325.708 267.13 309.995 282.844 294.281C287.348 289.777 291.853 285.273 296.356 280.769C306.36 270.765 311.978 257.2 311.978 243.056V156.945C311.978 142.8 306.36 129.235 296.356 119.232C291.853 114.728 287.348 110.224 282.844 105.718C267.13 90.0054 251.416 74.2924 235.702 58.5784C219.989 74.2924 204.275 90.0054 188.562 105.718C204.275 121.432 219.989 137.145 235.702 152.859C248.274 165.43 260.845 178.002 273.416 190.572C278.624 195.779 278.624 204.221 273.416 209.429Z" fill="black"/>
<path d="M94.2811 105.718C119.286 130.724 133.334 164.638 133.334 199.999C133.334 235.361 119.286 269.276 94.2811 294.281L141.422 341.422C178.928 303.915 200.002 253.044 200.002 200C200.002 146.958 178.929 96.0863 141.422 58.5784C125.708 74.2924 109.995 90.0054 94.2811 105.718Z" fill="black"/>
<path d="M1294.05 248.618C1266.69 248.618 1247.88 227.528 1247.88 200.169C1247.88 172.24 1266.12 151.151 1294.05 151.151C1314.57 151.151 1328.25 160.841 1333.95 180.336H1375.56C1369.29 134.052 1335.66 114.103 1294.05 114.103C1234.77 114.103 1204.56 155.711 1204.56 200.169C1204.56 250.327 1241.04 286.237 1294.05 286.237C1334.52 286.237 1369.29 266.857 1375.56 219.664H1333.95C1328.25 238.928 1315.14 248.618 1294.05 248.618Z" fill="black"/>
<path d="M1702.15 280.769L1666.24 228.826L1629.77 280.769H1580.18L1638.88 199.999L1580.18 119.232H1629.77L1666.24 172.316L1702.15 119.232H1751.74L1693.6 199.999L1751.74 280.769H1702.15Z" fill="black"/>
<path d="M1193.16 119.233H1149.84V280.769H1193.16V119.233Z" fill="black"/>
<path d="M993.67 119.232H946.362L905.324 185.92L864.286 119.232H816.977L883.664 225.248V280.769H926.983V225.818L993.67 119.232Z" fill="black"/>
<path d="M810.708 119.232H767.389V182.033H693.292V119.232H649.974V280.769H693.292V217.967H767.389V280.769H810.708V119.232Z" fill="black"/>
<path d="M571.32 119.237H483.535V280.769H526.863V240.068H571.32C612.927 240.068 638.575 222.399 638.575 179.652C638.575 136.905 612.927 119.237 571.32 119.237ZM567.9 204.16H526.863V155.144H567.9C583.289 155.144 595.258 161.983 595.258 179.652C595.258 198.461 581.579 204.16 567.9 204.16Z" fill="black"/>
<path d="M1537.43 234.938C1537.43 203.59 1518.05 193.329 1483.85 187.06C1472.45 184.97 1461.05 182.88 1449.65 180.791C1435.4 177.941 1428.56 172.81 1428.56 164.261C1428.56 152.861 1438.82 146.591 1459.91 146.591C1480.43 146.591 1492.4 154.002 1494.68 168.821H1533.44C1533.44 129.492 1502.09 114.103 1459.91 114.103C1418.87 114.103 1386.95 128.353 1386.95 163.691C1386.95 185.351 1399.49 204.729 1429.7 210.429C1443.19 213.089 1456.68 215.748 1470.17 218.409C1481.57 220.688 1494.68 223.538 1494.68 234.938C1494.68 246.907 1483.28 253.176 1459.91 253.176C1435.97 253.176 1422.29 245.198 1421.15 229.809H1381.83C1381.83 270.277 1414.88 286.237 1458.77 286.237C1499.24 286.237 1537.43 275.407 1537.43 234.938Z" fill="black"/>
<path d="M1137.87 234.938C1137.87 203.59 1118.5 193.329 1084.3 187.06C1072.9 184.97 1061.5 182.88 1050.1 180.791C1035.85 177.941 1029.01 172.81 1029.01 164.261C1029.01 152.861 1039.27 146.591 1060.36 146.591C1080.88 146.591 1092.85 154.002 1095.13 168.821H1133.89C1133.89 129.492 1102.54 114.103 1060.36 114.103C1019.32 114.103 987.401 128.353 987.401 163.691C987.401 185.351 999.939 204.729 1030.15 210.429C1043.64 213.089 1057.13 215.748 1070.62 218.409C1082.02 220.688 1095.13 223.538 1095.13 234.938C1095.13 246.907 1083.73 253.176 1060.36 253.176C1036.42 253.176 1022.74 245.198 1021.6 229.809H982.271C982.271 270.277 1015.33 286.237 1059.22 286.237C1099.69 286.237 1137.87 275.407 1137.87 234.938Z" fill="black"/>
</g>
<defs>
<clipPath id="clip0_5_18">
<rect width="1837.24" height="400" fill="white"/>
</clipPath>
</defs>
</svg>
